<svg width="283" height="66" fill="none" xmlns="http://www.w3.org/2000/svg"><path d="M27.79 61.993c-1.746-5.274 4.79-18.65 8.277-24.678-5.634 9.155-8.495 15.588-9.712 20.001-1.679 6.09 4.92 7.643 7.73 1.987a25.677 25.677 0 001.212-2.836l-3.786 1.508c-1.129 2.21-2.951 3.6-3.721 4.018z" fill="url(#paint0_linear_1_987)"/><path d="M27.791 61.995c1.381-.76 3.02-2.605 3.71-4 1.632-.633 2.037-.734 2.351-.797-.89 2.164-2.222 4.044-3.387 5.241-.876.9-2.28.748-2.674-.444z" fill="url(#paint1_linear_1_987)"/><path d="M46.675 31.047c-1.319-5.036-5.009-6.736-5.2-4.848-1.521 4.281-3.93 8.458-4.945 10.01-8.403 15.968-4.65 20.839-2.917 21.09 15.168-5.942 15.07-19.998 13.062-26.252z" fill="url(#paint2_linear_1_987)"/><path d="M23.586 23.118c.724-4.565.293-14.254-6.872-19.977-.445.949-.42 3.783 1.968 9.047l-2.286 3.732C14.26 12.126 10.492 2.383 13.793.168c3.018-1.504 12.426 7.195 9.793 22.95z" fill="url(#paint3_radial_1_987)"/><path d="M14.347 3.021c.742-.497 2.23-.118 2.478.193-.693 2.484.964 6.95 1.912 9l-1.779 2.93c-3.462-8.05-3.415-11.377-2.611-12.123z" fill="url(#paint4_linear_1_987)"/><path d="M32.462 28.872C33.474 14.44 26.335 4.755 22.64 1.717c17.286 9.655 23.128 23.383 23.888 29.04-2.332-7.945-10.35-4.567-14.066-1.885z" fill="url(#paint5_linear_1_987)"/><path opacity=".25" d="M43.405 26.361c-3.02-8.619-12.291-16.876-16.55-19.803 5.601 8.282 6.02 17.707 5.664 22.17 4.53-3.052 7.929-3.737 10.886-2.367z" fill="url(#paint6_linear_1_987)"/><path d="M41.799 26.698c4.145 5.503 8.584 18.828-6.825 28.103 1.68-8.674 5.396-26.44 6.825-28.103z" fill="url(#paint7_linear_1_987)"/><path d="M33.622 57.298c-3.09-2.961.506-14.963 2.674-20.642-7.417 13.528-9.005 19.904-8.74 22.064 3.735-.383 3.555-.657 6.066-1.422z" fill="#27569F"/><path d="M21.546 57.924c-.714-10.04 4.075-21.253 6.559-25.605-16.812 7.972-21.482 3.322-21.715 0-3.974 16.953 8.448 24.134 15.156 25.605z" fill="url(#paint8_linear_1_987)"/><path d="M21.537 56.207c-.19-9.405 4.147-19.834 6.568-23.888-13.325 5.894-18.25 4.828-20.397 2.508-1.819 13.743 8.504 19.959 13.83 21.38z" fill="url(#paint9_linear_1_987)"/><path d="M6.403 32.43c1.987-7.09 7.007-14.436 11.022-17.285 5.403-1.722 6.33 4.116 6.308 7.282-.816 8.004-4.588 12.685-6.372 13.93-7.2 2.217-10.767-.506-10.958-3.925z" fill="url(#paint10_linear_1_987)"/><path d="M14.99 17.32l6.274-8.576c2.608 3.977 2.85 10.599 2.467 13.473-.89-9.306-6.137-7.425-8.741-4.897z" fill="#148CCC"/><path d="M74.296 20.719h10.8v-3.156H68c0-1.154.463-2.036 1.388-2.647.948-.61 2.2-.916 3.757-.916h12.56c.677 0 1.32.09 1.93.271.608.181 1.139.43 1.59.747.474.294.846.656 1.117 1.086.271.43.407.905.407 1.425v9.942c0 .543-.136 1.03-.407 1.46-.27.429-.643.802-1.117 1.119a6.058 6.058 0 01-1.59.712A7.787 7.787 0 0185.67 31H73.145a9.627 9.627 0 01-2.03-.204 5.773 5.773 0 01-1.625-.61 3.428 3.428 0 01-1.118-1.086c-.248-.453-.372-.984-.372-1.595h17.095v-3.19H74.296V20.72zM110.329 31c-.699 0-1.286-.057-1.76-.17a7.679 7.679 0 01-1.219-.407 5.166 5.166 0 01-.914-.543 17.95 17.95 0 00-.812-.577l-7.177-6.141v4.58c0 .611-.147 1.132-.44 1.561-.27.408-.643.736-1.117.984a5.719 5.719 0 01-1.659.543c-.61.113-1.252.17-1.93.17h-.507V14h5.653v7.499l7.38-7.499h6.262l-7.718 7.974L114.662 31h-4.333zm29.115-3.427c0 .61-.136 1.13-.407 1.56-.27.408-.643.759-1.117 1.053-.451.271-.993.475-1.625.61a9.664 9.664 0 01-2.031.204h-12.525c-.7 0-1.354-.08-1.963-.238a6.656 6.656 0 01-1.625-.712 4.099 4.099 0 01-1.083-1.086 2.857 2.857 0 01-.373-1.459V17.461c0-.498.124-.961.373-1.391.27-.453.631-.826 1.083-1.12a5.292 5.292 0 011.625-.712 7.78 7.78 0 011.963-.238h12.525c1.535 0 2.776.305 3.724.916.97.588 1.456 1.46 1.456 2.613v10.044zm-5.654-10.01h-11.442v9.942h11.442v-9.942zM158.584 31v-6.685h-11.442V31h-5.653V17.461c0-.498.135-.95.406-1.357a3.55 3.55 0 011.083-1.086 5.96 5.96 0 011.625-.747 6.87 6.87 0 011.964-.271h.575v6.786h11.476V14h5.619v17h-5.653zm38.184-3.427c0 .724-.192 1.312-.576 1.764a3.593 3.593 0 01-1.388 1.052 6.376 6.376 0 01-1.828.51c-.654.067-1.275.101-1.861.101h-11.849v-.34c0-.791.203-1.402.61-1.832a3.539 3.539 0 011.455-.95 5.715 5.715 0 011.727-.34 40.891 40.891 0 011.422-.033h6.635v-3.19h-11.916c-.339 0-.802.023-1.388.068a7.705 7.705 0 01-1.761-.136 3.146 3.146 0 01-1.455-.78c-.406-.407-.61-1.03-.61-1.866v-7.567h.474c.361 0 .835.023 1.422.068a7.08 7.08 0 011.727.34 3.557 3.557 0 011.455.881c.406.407.61.996.61 1.765v3.63h11.442V14h5.653v13.573zm24.793-6.854c0 1.198-.576 2.103-1.727 2.714-1.151.588-2.696.882-4.637.882h-8.463c0-.362.056-.757.169-1.187a3.86 3.86 0 01.575-1.188c.271-.34.621-.622 1.05-.848.429-.249.936-.373 1.523-.373h5.823v-3.156h-11.408v9.467c0 1.583-.486 2.67-1.456 3.257a4.549 4.549 0 01-1.693.577c-.631.09-1.275.136-1.929.136h-.576V14h17.57c1.534 0 2.775.305 3.723.916.971.61 1.456 1.493 1.456 2.647v3.156zm2.045-3.156c0-1.154.474-2.036 1.422-2.647.97-.61 2.223-.916 3.758-.916h22.24c1.535 0 2.776.305 3.724.916.97.61 1.456 1.493 1.456 2.647v5.768c0 1.2-.576 2.104-1.727 2.715-1.151.588-2.697.882-4.638.882h-7.108v.102c0 1.583-.486 2.67-1.456 3.257a4.555 4.555 0 01-1.693.577c-.632.09-1.275.136-1.929.136h-.576v-4.072h-7.109c-1.94 0-3.486-.294-4.637-.882-1.151-.61-1.727-1.516-1.727-2.715v-5.768zm19.127 5.768h7.785v-5.768h-7.785v5.768zm-13.44 0h7.786v-5.768h-7.786v5.768zM281 27.573c0 .61-.135 1.13-.406 1.56a3.579 3.579 0 01-1.117 1.053c-.452.271-.993.475-1.625.61a9.664 9.664 0 01-2.031.204h-12.526c-.699 0-1.354-.08-1.963-.238a6.673 6.673 0 01-1.625-.712 4.129 4.129 0 01-1.083-1.086 2.866 2.866 0 01-.372-1.459V17.461c0-.498.124-.961.372-1.391a3.422 3.422 0 011.083-1.12 5.303 5.303 0 011.625-.712 7.785 7.785 0 011.963-.238h12.526c1.534 0 2.776.305 3.723.916.971.588 1.456 1.46 1.456 2.613v10.044zm-5.653-10.01h-11.442v9.942h11.442v-9.942z" fill="#2B2E34"/><path d="M72.862 53.143c-1.11 0-2.071-.312-2.886-.936-.806-.624-1.317-1.378-1.534-2.262h1.274c.217.598.607 1.092 1.17 1.482.572.381 1.23.572 1.976.572.927 0 1.72-.29 2.379-.871.659-.59 1.049-1.335 1.17-2.236h-4.758v-1.118h4.745c-.139-.884-.533-1.608-1.183-2.171-.65-.572-1.434-.858-2.353-.858-.745 0-1.404.195-1.976.585a2.963 2.963 0 00-1.17 1.482h-1.274c.217-.884.728-1.638 1.534-2.262.806-.633 1.768-.949 2.886-.949 1.36 0 2.496.46 3.406 1.378.919.91 1.378 2.041 1.378 3.393 0 1.352-.46 2.487-1.378 3.406-.91.91-2.045 1.365-3.406 1.365zM79.285 53v-6.5h1.118v2.678h3.55V46.5h1.117V53h-1.118v-2.808h-3.549V53h-1.118zm10.666.13c-.945 0-1.73-.32-2.353-.962-.615-.641-.923-1.447-.923-2.418 0-.98.299-1.785.897-2.418.607-.641 1.408-.962 2.405-.962 1.005 0 1.794.355 2.366 1.066.572.71.823 1.582.754 2.613h-5.291a2.06 2.06 0 00.65 1.482c.416.39.919.585 1.508.585.884 0 1.512-.364 1.885-1.092h1.144c-.165.607-.516 1.11-1.053 1.508-.537.399-1.2.598-1.99.598zm1.274-5.304a1.883 1.883 0 00-1.287-.468c-.503 0-.953.152-1.352.455-.39.303-.633.754-.728 1.352h4.056c-.104-.59-.334-1.036-.69-1.339zm4.603 7.891H94.71V46.5h1.118v1.001c.226-.33.542-.598.95-.806a2.856 2.856 0 011.338-.325c.902 0 1.656.33 2.262.988.616.659.923 1.456.923 2.392 0 .936-.307 1.733-.923 2.392-.606.659-1.36.988-2.262.988-.476 0-.923-.104-1.339-.312a2.601 2.601 0 01-.949-.819v3.718zm.533-4.29c.416.45.945.676 1.586.676.642 0 1.17-.225 1.586-.676.416-.45.624-1.01.624-1.677s-.208-1.226-.624-1.677c-.416-.45-.944-.676-1.586-.676-.641 0-1.17.225-1.586.676-.416.45-.624 1.01-.624 1.677s.208 1.226.624 1.677zm6.55 1.573v-6.5h4.069v1.027h-2.951V53h-1.118zm8.028.13c-.979 0-1.794-.325-2.444-.975-.641-.659-.962-1.46-.962-2.405 0-.945.321-1.742.962-2.392.65-.659 1.465-.988 2.444-.988.971 0 1.777.33 2.418.988.65.65.975 1.447.975 2.392 0 .945-.325 1.746-.975 2.405-.641.65-1.447.975-2.418.975zm-1.638-1.716c.425.45.971.676 1.638.676.667 0 1.209-.225 1.625-.676.416-.45.624-1.005.624-1.664s-.208-1.213-.624-1.664c-.416-.45-.958-.676-1.625-.676s-1.213.225-1.638.676c-.416.45-.624 1.005-.624 1.664s.208 1.213.624 1.664zm9.522 1.716c-.98 0-1.79-.325-2.431-.975-.642-.659-.962-1.46-.962-2.405 0-.945.32-1.742.962-2.392.641-.659 1.451-.988 2.431-.988.806 0 1.503.225 2.093.676a3.184 3.184 0 011.183 1.742h-1.196a2.067 2.067 0 00-.78-1.014c-.364-.251-.798-.377-1.3-.377-.668 0-1.214.225-1.638.676-.416.45-.624 1.01-.624 1.677s.208 1.226.624 1.677c.424.45.97.676 1.638.676.502 0 .936-.126 1.3-.377s.624-.59.78-1.014h1.196a3.179 3.179 0 01-1.17 1.755c-.59.442-1.292.663-2.106.663zm7.876 0c-1.022 0-1.841-.338-2.457-1.014-.606-.676-.91-1.564-.91-2.665v-.663c0-1.595.286-2.786.858-3.575.572-.797 1.508-1.322 2.808-1.573l2.418-.442v1.066l-2.171.403c-.927.165-1.599.477-2.015.936-.407.46-.663 1.135-.767 2.028.564-.754 1.361-1.131 2.392-1.131.98 0 1.764.312 2.353.936.598.624.897 1.387.897 2.288 0 .953-.325 1.76-.975 2.418-.641.659-1.451.988-2.431.988zm-1.612-1.703c.416.442.954.663 1.612.663.659 0 1.201-.221 1.625-.663.425-.442.637-1.01.637-1.703 0-.65-.212-1.179-.637-1.586-.416-.416-.949-.624-1.599-.624-.667 0-1.213.212-1.638.637-.416.416-.624.94-.624 1.573 0 .693.208 1.261.624 1.703zm9.386 1.703c-.944 0-1.729-.32-2.353-.962-.615-.641-.923-1.447-.923-2.418 0-.98.299-1.785.897-2.418.607-.641 1.409-.962 2.405-.962 1.006 0 1.794.355 2.366 1.066.572.71.824 1.582.754 2.613h-5.291c.018.59.234 1.083.65 1.482.416.39.919.585 1.508.585.884 0 1.513-.364 1.885-1.092h1.144c-.164.607-.515 1.11-1.053 1.508-.537.399-1.2.598-1.989.598zm1.274-5.304a1.882 1.882 0 00-1.287-.468 2.18 2.18 0 00-1.352.455c-.39.303-.632.754-.728 1.352h4.056c-.104-.59-.333-1.036-.689-1.339zm4.604 7.891h-1.118V46.5h1.118v1.001a2.48 2.48 0 01.949-.806 2.855 2.855 0 011.339-.325c.901 0 1.655.33 2.262.988.615.659.923 1.456.923 2.392 0 .936-.308 1.733-.923 2.392-.607.659-1.361.988-2.262.988-.477 0-.923-.104-1.339-.312a2.592 2.592 0 01-.949-.819v3.718zm.533-4.29c.416.45.944.676 1.586.676.641 0 1.17-.225 1.586-.676.416-.45.624-1.01.624-1.677s-.208-1.226-.624-1.677c-.416-.45-.945-.676-1.586-.676-.642 0-1.17.225-1.586.676-.416.45-.624 1.01-.624 1.677s.208 1.226.624 1.677zm9.319 1.703c-.945 0-1.729-.32-2.353-.962-.615-.641-.923-1.447-.923-2.418 0-.98.299-1.785.897-2.418.607-.641 1.408-.962 2.405-.962 1.005 0 1.794.355 2.366 1.066.572.71.823 1.582.754 2.613h-5.291c.017.59.234 1.083.65 1.482.416.39.919.585 1.508.585.884 0 1.512-.364 1.885-1.092h1.144c-.165.607-.516 1.11-1.053 1.508-.537.399-1.2.598-1.989.598zm1.274-5.304a1.882 1.882 0 00-1.287-.468c-.503 0-.953.152-1.352.455-.39.303-.633.754-.728 1.352h4.056c-.104-.59-.334-1.036-.689-1.339zM154.962 53v-6.5h4.069v1.027h-2.951V53h-1.118zm7.832.13c-.901 0-1.659-.33-2.275-.988-.606-.659-.91-1.456-.91-2.392 0-.936.304-1.733.91-2.392a2.992 2.992 0 012.275-.988c.477 0 .919.108 1.326.325.416.208.737.477.962.806V46.5h1.118V53h-1.118v-1.001c-.225.33-.546.602-.962.819a2.871 2.871 0 01-1.326.312zm.169-1.027c.642 0 1.17-.225 1.586-.676.416-.45.624-1.01.624-1.677s-.208-1.226-.624-1.677c-.416-.45-.944-.676-1.586-.676-.65 0-1.183.225-1.599.676-.416.45-.624 1.01-.624 1.677s.208 1.226.624 1.677c.416.45.949.676 1.599.676zm10.932 1.027c-.858 0-1.586-.277-2.184-.832-.589-.555-.936-1.257-1.04-2.106h-1.248V53h-1.118v-6.5h1.118v2.691h1.261c.13-.823.485-1.5 1.066-2.028.589-.529 1.304-.793 2.145-.793.945 0 1.725.325 2.34.975.615.65.923 1.452.923 2.405 0 .953-.308 1.755-.923 2.405-.615.65-1.395.975-2.34.975zm-1.521-1.716c.399.442.906.663 1.521.663.615 0 1.122-.221 1.521-.663.399-.45.598-1.005.598-1.664s-.199-1.209-.598-1.651a1.944 1.944 0 00-1.521-.676c-.615 0-1.122.221-1.521.663-.39.442-.585.997-.585 1.664 0 .659.195 1.213.585 1.664zm15.908.559v2.665h-1.053V53h-8.476v-6.5h1.118v5.473h2.587V46.5h1.118v5.473h2.587V46.5h1.118v5.473h1.001zM190.786 53h-1.001v-6.5h1.118v4.771l3.666-4.771h.988V53h-1.105v-4.771L190.786 53zm9.665.13c-.945 0-1.729-.32-2.353-.962-.615-.641-.923-1.447-.923-2.418 0-.98.299-1.785.897-2.418.607-.641 1.408-.962 2.405-.962 1.005 0 1.794.355 2.366 1.066.572.71.823 1.582.754 2.613h-5.291c.017.59.234 1.083.65 1.482.416.39.919.585 1.508.585.884 0 1.512-.364 1.885-1.092h1.144c-.165.607-.516 1.11-1.053 1.508-.537.399-1.2.598-1.989.598zm1.274-5.304a1.882 1.882 0 00-1.287-.468c-.503 0-.953.152-1.352.455-.39.303-.633.754-.728 1.352h4.056c-.104-.59-.334-1.036-.689-1.339zM212.387 53v-5.473h-2.067V46.5h5.343v1.027h-2.158V53h-1.118zm7.132.13c-.944 0-1.729-.32-2.353-.962-.615-.641-.923-1.447-.923-2.418 0-.98.299-1.785.897-2.418.607-.641 1.409-.962 2.405-.962 1.006 0 1.794.355 2.366 1.066.572.71.824 1.582.754 2.613h-5.291c.018.59.234 1.083.65 1.482.416.39.919.585 1.508.585.884 0 1.513-.364 1.885-1.092h1.144c-.164.607-.515 1.11-1.053 1.508-.537.399-1.2.598-1.989.598zm1.274-5.304a1.882 1.882 0 00-1.287-.468 2.18 2.18 0 00-1.352.455c-.39.303-.632.754-.728 1.352h4.056c-.104-.59-.333-1.036-.689-1.339zm7.6 5.174l-1.976-2.457L224.441 53h-1.391l2.665-3.289-2.444-3.211h1.352l1.794 2.353 1.781-2.353h1.365l-2.457 3.211L229.771 53h-1.378zm2.525 0v-6.5h1.118v2.678h3.549V46.5h1.118V53h-1.118v-2.808h-3.549V53h-1.118zm10.783.13c-.98 0-1.794-.325-2.444-.975-.642-.659-.962-1.46-.962-2.405 0-.945.32-1.742.962-2.392.65-.659 1.464-.988 2.444-.988.97 0 1.776.33 2.418.988.65.65.975 1.447.975 2.392 0 .945-.325 1.746-.975 2.405-.642.65-1.448.975-2.418.975zm-1.638-1.716c.424.45.97.676 1.638.676.667 0 1.209-.225 1.625-.676.416-.45.624-1.005.624-1.664s-.208-1.213-.624-1.664c-.416-.45-.958-.676-1.625-.676-.668 0-1.214.225-1.638.676-.416.45-.624 1.005-.624 1.664s.208 1.213.624 1.664zm6.339 1.677c-.295 0-.49-.013-.585-.039v-1.001c.061.017.199.026.416.026.269 0 .468-.091.598-.273.13-.19.195-.524.195-1.001V46.5h5.018V53h-1.118v-5.473h-2.782v3.51c0 .667-.16 1.179-.481 1.534-.321.347-.741.52-1.261.52zm10.647.039c-.979 0-1.794-.325-2.444-.975-.641-.659-.962-1.46-.962-2.405 0-.945.321-1.742.962-2.392.65-.659 1.465-.988 2.444-.988.971 0 1.777.33 2.418.988.65.65.975 1.447.975 2.392 0 .945-.325 1.746-.975 2.405-.641.65-1.447.975-2.418.975zm-1.638-1.716c.425.45.971.676 1.638.676.668 0 1.209-.225 1.625-.676.416-.45.624-1.005.624-1.664s-.208-1.213-.624-1.664c-.416-.45-.957-.676-1.625-.676-.667 0-1.213.225-1.638.676-.416.45-.624 1.005-.624 1.664s.208 1.213.624 1.664zM262.047 53v-6.5h4.069v1.027h-2.951V53h-1.118zm6.346 0h-1.001v-6.5h1.118v4.771l3.666-4.771h.988V53h-1.105v-4.771L268.393 53zm7.896 0h-1.001v-6.5h1.118v4.771l3.666-4.771h.988V53h-1.105v-4.771L276.289 53z" fill="#555"/><defs><linearGradient id="paint0_linear_1_987" x1="30.837" y1="37.315" x2="28.04" y2="65.961" gradientUnits="userSpaceOnUse"><stop stop-color="#1EA99E"/><stop offset=".359" stop-color="#D0FEFA"/><stop offset="1" stop-color="#1EA99E"/></linearGradient><linearGradient id="paint1_linear_1_987" x1="32.877" y1="57.617" x2="27.413" y2="64.728" gradientUnits="userSpaceOnUse"><stop stop-color="#188C83"/><stop offset="1" stop-color="#fff" stop-opacity="0"/></linearGradient><linearGradient id="paint2_linear_1_987" x1="42.744" y1="26.011" x2="33.733" y2="57.272" gradientUnits="userSpaceOnUse"><stop stop-color="#2D63C8"/><stop offset="1" stop-color="#08A7FA"/></linearGradient><linearGradient id="paint4_linear_1_987" x1="14.718" y1="2.835" x2="17.96" y2="13.449" gradientUnits="userSpaceOnUse"><stop stop-color="#ADFFF8"/><stop offset="1" stop-color="#1EA99E"/></linearGradient><linearGradient id="paint5_linear_1_987" x1="34.616" y1="-1.551" x2="44.423" y2="26.344" gradientUnits="userSpaceOnUse"><stop stop-color="#00AFFF"/><stop offset="1" stop-color="#4268D5"/></linearGradient><linearGradient id="paint6_linear_1_987" x1="37.49" y1="16.709" x2="32.504" y2="21.306" gradientUnits="userSpaceOnUse"><stop stop-color="#fff" stop-opacity=".73"/><stop offset="1" stop-color="#fff" stop-opacity="0"/></linearGradient><linearGradient id="paint7_linear_1_987" x1="45.689" y1="42.01" x2="40.344" y2="40.271" gradientUnits="userSpaceOnUse"><stop stop-color="#fff" stop-opacity=".18"/><stop offset="1" stop-color="#fff" stop-opacity="0"/></linearGradient><linearGradient id="paint8_linear_1_987" x1="28.105" y1="32.382" x2="9.51" y2="52.113" gradientUnits="userSpaceOnUse"><stop stop-color="#0D9FF4"/><stop offset="1" stop-color="#2B67CB"/></linearGradient><linearGradient id="paint9_linear_1_987" x1="9.413" y1="46.802" x2="15.876" y2="40.988" gradientUnits="userSpaceOnUse"><stop stop-color="#fff" stop-opacity=".25"/><stop offset="1" stop-color="#fff" stop-opacity="0"/></linearGradient><linearGradient id="paint10_linear_1_987" x1="20.42" y1="15.587" x2="10.518" y2="37.1" gradientUnits="userSpaceOnUse"><stop stop-color="#06AAFC"/><stop offset="1" stop-color="#1B4CAA"/></linearGradient><radialGradient id="paint3_radial_1_987" cx="0" cy="0" r="1" gradientUnits="userSpaceOnUse" gradientTransform="matrix(-4.7929 -9.39484 4.59761 -2.34553 19.221 9.373)"><stop stop-color="#2AAFA4"/><stop offset=".558" stop-color="#D0FDF9"/><stop offset="1" stop-color="#2AAFA4"/></radialGradient></defs></svg>