<svg width="278" height="31" fill="none" xmlns="http://www.w3.org/2000/svg"><path d="M7.792 10.664c.725.683 1.088 1.547 1.088 2.592 0 1.045-.363 1.91-1.088 2.592-.715.672-1.653 1.008-2.816 1.008H2.992V21H1.504V9.64h3.472c1.163 0 2.101.341 2.816 1.024zm-1.04 4.192c.437-.416.656-.95.656-1.6 0-.65-.219-1.184-.656-1.6-.427-.416-1.019-.624-1.776-.624H2.992v4.448h1.984c.757 0 1.35-.208 1.776-.624zm6.98 6.304c-1.109 0-2.042-.405-2.8-1.216-.746-.81-1.12-1.792-1.12-2.944s.374-2.133 1.12-2.944c.758-.81 1.691-1.216 2.8-1.216.587 0 1.131.133 1.633.4.512.256.906.587 1.184.992V13h1.376v8h-1.376v-1.232c-.278.405-.672.741-1.184 1.008a3.536 3.536 0 01-1.632.384zm.209-1.264c.789 0 1.44-.277 1.952-.832.512-.555.768-1.243.768-2.064s-.256-1.51-.768-2.064c-.512-.555-1.163-.832-1.952-.832-.8 0-1.456.277-1.968.832-.512.555-.768 1.243-.768 2.064s.256 1.51.768 2.064c.512.555 1.168.832 1.968.832zm9.118 1.264c-.822 0-1.542-.203-2.16-.608-.608-.405-.987-.976-1.136-1.712h1.392c.266.768.901 1.152 1.904 1.152.586 0 1.03-.123 1.328-.368.298-.245.448-.565.448-.96s-.15-.704-.448-.928c-.288-.224-.704-.336-1.248-.336h-.928v-1.12h.928c.437 0 .784-.096 1.04-.288.266-.192.4-.475.4-.848 0-.363-.139-.645-.416-.848-.278-.203-.65-.304-1.12-.304-.928 0-1.51.373-1.744 1.12h-1.36c.15-.736.512-1.296 1.088-1.68.576-.395 1.253-.592 2.032-.592.896 0 1.594.213 2.096.64.501.416.752.944.752 1.584 0 .779-.33 1.36-.992 1.744.874.395 1.312 1.05 1.312 1.968 0 .672-.278 1.237-.832 1.696-.555.459-1.334.688-2.336.688zm6.582 3.184h-1.376V13h1.376v1.232c.277-.405.666-.736 1.168-.992a3.515 3.515 0 011.648-.4c1.11 0 2.037.405 2.784 1.216.757.81 1.136 1.792 1.136 2.944s-.379 2.133-1.136 2.944c-.747.81-1.675 1.216-2.784 1.216a3.634 3.634 0 01-1.648-.384c-.502-.267-.89-.603-1.168-1.008v4.576zm.656-5.28c.512.555 1.162.832 1.952.832s1.44-.277 1.952-.832c.512-.555.768-1.243.768-2.064s-.256-1.51-.768-2.064c-.512-.555-1.163-.832-1.952-.832-.79 0-1.44.277-1.952.832-.512.555-.768 1.243-.768 2.064s.256 1.51.768 2.064zm11.357 2.096c-1.109 0-2.042-.405-2.8-1.216-.746-.81-1.12-1.792-1.12-2.944s.374-2.133 1.12-2.944c.758-.81 1.691-1.216 2.8-1.216.587 0 1.131.133 1.632.4.512.256.907.587 1.184.992V13h1.377v8H44.47v-1.232c-.277.405-.672.741-1.184 1.008a3.536 3.536 0 01-1.632.384zm.208-1.264c.79 0 1.44-.277 1.953-.832.512-.555.768-1.243.768-2.064s-.256-1.51-.768-2.064c-.512-.555-1.163-.832-1.953-.832-.8 0-1.456.277-1.968.832-.511.555-.767 1.243-.767 2.064s.255 1.51.767 2.064c.513.555 1.169.832 1.968.832zm10.415 1.264c-1.259 0-2.267-.416-3.024-1.248-.747-.832-1.12-1.925-1.12-3.28v-.816c0-1.963.352-3.43 1.056-4.4.704-.981 1.856-1.627 3.456-1.936l2.976-.544v1.312l-2.672.496c-1.142.203-1.968.587-2.48 1.152-.502.565-.816 1.397-.944 2.496.693-.928 1.674-1.392 2.944-1.392 1.205 0 2.17.384 2.896 1.152.736.768 1.104 1.707 1.104 2.816 0 1.173-.4 2.165-1.2 2.976-.79.81-1.787 1.216-2.992 1.216zm-1.984-2.096c.512.544 1.173.816 1.984.816.81 0 1.477-.272 2-.816.522-.544.784-1.243.784-2.096 0-.8-.262-1.45-.784-1.952-.512-.512-1.168-.768-1.968-.768-.822 0-1.494.261-2.016.784-.512.512-.768 1.157-.768 1.936 0 .853.256 1.552.768 2.096zm11.696 2.096c-1.206 0-2.208-.4-3.008-1.2-.79-.81-1.184-1.797-1.184-2.96s.394-2.144 1.184-2.944c.8-.81 1.802-1.216 3.008-1.216 1.194 0 2.186.405 2.976 1.216.8.8 1.2 1.781 1.2 2.944s-.4 2.15-1.2 2.96c-.79.8-1.782 1.2-2.976 1.2zm-2.016-2.112c.522.555 1.194.832 2.016.832.821 0 1.488-.277 2-.832.512-.555.768-1.237.768-2.048 0-.81-.256-1.493-.768-2.048-.512-.555-1.179-.832-2-.832-.822 0-1.494.277-2.016.832-.512.555-.768 1.237-.768 2.048 0 .81.256 1.493.768 2.048zM69.44 21v-6.736h-2.544V13h6.576v1.264h-2.656V21H69.44zm8.682.16c-1.11 0-2.042-.405-2.8-1.216-.746-.81-1.12-1.792-1.12-2.944s.374-2.133 1.12-2.944c.758-.81 1.69-1.216 2.8-1.216.587 0 1.13.133 1.632.4.512.256.907.587 1.184.992V13h1.376v8H80.94v-1.232c-.277.405-.672.741-1.184 1.008a3.537 3.537 0 01-1.632.384zm.208-1.264c.79 0 1.44-.277 1.952-.832.512-.555.768-1.243.768-2.064s-.256-1.51-.768-2.064c-.512-.555-1.162-.832-1.952-.832-.8 0-1.456.277-1.968.832-.512.555-.768 1.243-.768 2.064s.256 1.51.768 2.064c.512.555 1.168.832 1.968.832zM84.905 21v-8h1.376v3.296h4.368V13h1.376v8H90.65v-3.456h-4.368V21h-1.376zm13.271.16c-1.205 0-2.208-.4-3.008-1.2-.79-.81-1.184-1.797-1.184-2.96s.395-2.144 1.184-2.944c.8-.81 1.803-1.216 3.008-1.216 1.195 0 2.187.405 2.976 1.216.8.8 1.2 1.781 1.2 2.944s-.4 2.15-1.2 2.96c-.789.8-1.781 1.2-2.976 1.2zm-2.016-2.112c.523.555 1.195.832 2.016.832.822 0 1.488-.277 2-.832.512-.555.768-1.237.768-2.048 0-.81-.256-1.493-.768-2.048-.512-.555-1.178-.832-2-.832-.821 0-1.493.277-2.016.832-.512.555-.768 1.237-.768 2.048 0 .81.256 1.493.768 2.048z" fill="#7E838C"/><path d="M162.96 16.284V21h-2.214V8.4c.624 0 1.302-.006 2.034-.018.732-.012 1.332-.018 1.8-.018 3.048 0 4.572 1.296 4.572 3.888 0 .96-.246 1.752-.738 2.376-.492.6-1.056 1.008-1.692 1.224L170.664 21h-2.682l-3.474-4.716h-1.548zm1.512-5.85c-.06 0-.156.006-.288.018-.132 0-.318.006-.558.018h-.666v3.744h1.44c.708 0 1.284-.174 1.728-.522.456-.348.684-.822.684-1.422 0-1.224-.78-1.836-2.34-1.836zm13.143 8.298l.594 1.458c-.804.672-1.836 1.008-3.096 1.008-1.296 0-2.352-.39-3.168-1.17-.792-.768-1.188-1.794-1.188-3.078 0-1.2.39-2.208 1.17-3.024.78-.816 1.818-1.224 3.114-1.224 1.068 0 1.974.354 2.718 1.062.744.708 1.116 1.608 1.116 2.7 0 .48-.042.852-.126 1.116h-5.85c.084.588.342 1.05.774 1.386.444.336.996.504 1.656.504.9 0 1.662-.246 2.286-.738zm-2.664-4.302c-1.176 0-1.884.588-2.124 1.764h3.978c.012-.516-.156-.936-.504-1.26-.336-.336-.786-.504-1.35-.504zm13.315 10.17h-2.07v-4.014a3.587 3.587 0 01-1.998.612c-1.284 0-2.31-.384-3.078-1.152-.756-.78-1.134-1.812-1.134-3.096 0-1.212.438-2.22 1.314-3.024.888-.816 1.998-1.224 3.33-1.224 1.392 0 2.604.324 3.636.972V24.6zm-3.798-5.328c.696 0 1.272-.246 1.728-.738v-3.492c-.54-.264-1.068-.396-1.584-.396-.744 0-1.332.228-1.764.684-.432.444-.648 1.014-.648 1.71 0 .648.204 1.182.612 1.602.42.42.972.63 1.656.63zm11.333-6.372h2.07V21h-2.07v-.99c-.648.792-1.512 1.188-2.592 1.188-.864 0-1.554-.288-2.07-.864-.516-.576-.774-1.404-.774-2.484V12.9h2.07v4.518c0 1.236.516 1.854 1.548 1.854.708 0 1.314-.33 1.818-.99V12.9zm10.73 5.832l.594 1.458c-.804.672-1.836 1.008-3.096 1.008-1.296 0-2.352-.39-3.168-1.17-.792-.768-1.188-1.794-1.188-3.078 0-1.2.39-2.208 1.17-3.024.78-.816 1.818-1.224 3.114-1.224 1.068 0 1.974.354 2.718 1.062.744.708 1.116 1.608 1.116 2.7 0 .48-.042.852-.126 1.116h-5.85c.084.588.342 1.05.774 1.386.444.336.996.504 1.656.504.9 0 1.662-.246 2.286-.738zm-2.664-4.302c-1.176 0-1.884.588-2.124 1.764h3.978c.012-.516-.156-.936-.504-1.26-.336-.336-.786-.504-1.35-.504zm5.322.738c0-.756.276-1.356.828-1.8.552-.444 1.266-.666 2.142-.666 1.32 0 2.346.342 3.078 1.026l-.774 1.476c-.66-.516-1.392-.774-2.196-.774-.288 0-.528.072-.72.216-.192.132-.288.294-.288.486 0 .396.51.726 1.53.99.372.084.702.18.99.288.288.096.582.24.882.432.312.18.552.42.72.72.168.3.252.648.252 1.044 0 .792-.3 1.422-.9 1.89-.588.468-1.38.702-2.376.702-.708 0-1.398-.15-2.07-.45-.684-.312-1.122-.624-1.314-.936l1.008-1.35c.228.276.606.51 1.134.702.54.204 1.002.306 1.386.306.468.048.798-.102.99-.45.192-.36.066-.654-.378-.882-.18-.096-.462-.198-.846-.306-.372-.108-.72-.216-1.044-.324a8.619 8.619 0 01-.972-.45 2.078 2.078 0 01-.774-.738c-.192-.324-.288-.708-.288-1.152zm8.088 2.754V10.65h2.07v2.25h2.61v1.944h-2.61v2.952c0 .972.324 1.458.972 1.458.408 0 .822-.156 1.242-.468l.63 1.602c-.66.528-1.458.792-2.394.792-.876 0-1.518-.264-1.926-.792-.396-.54-.594-1.362-.594-2.466zM228.649 21h-.153V9.1h.187c.488 0 .941-.006 1.36-.017a91.694 91.694 0 011.496-.034c1.145 0 2.154.159 3.026.476.884.306 1.587.737 2.108 1.292a5.194 5.194 0 011.156 1.853c.261.68.391 1.417.391 2.21 0 1.79-.595 3.264-1.785 4.42-1.178 1.156-2.856 1.734-5.032 1.734-.487 0-.935-.006-1.343-.017a51.608 51.608 0 00-1.411-.017zm2.856-11.067c-.249 0-.617.011-1.105.034-.476.011-.799.017-.969.017v10.132c.374 0 .726.006 1.054.017.329 0 .567.006.714.017h.238c1.848 0 3.276-.487 4.284-1.462 1.009-.986 1.513-2.255 1.513-3.808 0-1.462-.481-2.652-1.445-3.57-.974-.918-2.402-1.377-4.284-1.377zm14.951 9.452l.289.68c-.692.725-1.632 1.088-2.822 1.088-1.224 0-2.205-.363-2.941-1.088-.748-.725-1.122-1.689-1.122-2.89 0-1.156.34-2.108 1.02-2.856.691-.748 1.643-1.122 2.856-1.122.986 0 1.813.317 2.482.952.657.623.986 1.456.986 2.499 0 .272-.017.51-.051.714h-6.307c.034.918.334 1.643.901 2.176.566.521 1.309.782 2.227.782 1.065 0 1.892-.312 2.482-.935zm-2.805-5.355c-.816 0-1.479.238-1.989.714-.499.476-.788 1.105-.867 1.887h5.508c-.012-.805-.255-1.44-.731-1.904-.476-.465-1.117-.697-1.921-.697zm9.629 4.964c0-.351-.148-.635-.442-.85a3.274 3.274 0 00-1.054-.51c-.408-.125-.822-.26-1.241-.408a2.69 2.69 0 01-1.071-.731c-.284-.34-.425-.765-.425-1.275 0-.612.226-1.1.68-1.462.453-.374 1.048-.561 1.785-.561 1.054 0 1.853.283 2.397.85l-.374.663c-.522-.487-1.19-.731-2.006-.731-.454 0-.828.119-1.122.357a1.061 1.061 0 00-.425.867c0 .363.141.663.425.901.294.227.646.408 1.054.544.419.125.838.26 1.258.408.419.147.77.38 1.054.697.294.317.442.72.442 1.207 0 .691-.261 1.23-.782 1.615-.51.385-1.168.578-1.972.578-.499 0-1.02-.113-1.564-.34-.51-.215-.862-.47-1.054-.765l.493-.578c.215.26.538.476.969.646.442.17.861.255 1.258.255.498 0 .906-.119 1.224-.357.328-.25.493-.59.493-1.02zM257.733 21h-.884v-7.65h.884V21zm-1.037-10.625a.5.5 0 01.187-.408.677.677 0 01.442-.153c.147 0 .278.057.391.17a.482.482 0 01.187.391.621.621 0 01-.17.459.522.522 0 01-.408.17.659.659 0 01-.459-.17.621.621 0 01-.17-.459zm3.056 11.747c0-.578.204-1.065.612-1.462.408-.397.986-.674 1.734-.833a1.105 1.105 0 01-.255-.731c0-.283.096-.538.289-.765a2.598 2.598 0 01-1.173-.969 2.595 2.595 0 01-.425-1.462c0-.782.277-1.428.833-1.938.555-.51 1.286-.765 2.193-.765.725 0 1.365.193 1.921.578h.017l2.176-.578v.833l-1.547.391c.306.465.459.958.459 1.479 0 .76-.284 1.405-.85 1.938-.567.51-1.292.765-2.176.765-.318 0-.573-.023-.765-.068a.963.963 0 00-.153.561c0 .26.073.465.221.612.43-.023.668-.034.714-.034 1.167 0 2.096.215 2.788.646.691.43 1.037 1.031 1.037 1.802 0 .76-.346 1.349-1.037 1.768-.692.43-1.621.646-2.788.646-1.179 0-2.114-.21-2.805-.629-.68-.42-1.02-1.014-1.02-1.785zm.901 0c0 .499.26.89.782 1.173.532.295 1.246.442 2.142.442.884 0 1.592-.147 2.125-.442.532-.295.799-.686.799-1.173 0-.499-.267-.895-.799-1.19-.522-.306-1.23-.459-2.125-.459-.884 0-1.593.147-2.125.442-.533.295-.799.697-.799 1.207zm1.377-7.582a1.765 1.765 0 00-.595 1.36c0 .544.198.997.595 1.36.396.363.906.544 1.53.544.623 0 1.133-.181 1.53-.544.396-.363.595-.816.595-1.36 0-.544-.204-.997-.612-1.36-.397-.363-.901-.544-1.513-.544-.601 0-1.111.181-1.53.544zm8.045 6.46h-.884v-7.65h.884v1.071c.317-.351.725-.64 1.224-.867a3.74 3.74 0 011.53-.34c1.065 0 1.864.278 2.397.833.532.555.799 1.417.799 2.584V21h-.884v-4.199c0-1.836-.839-2.754-2.516-2.754-.488 0-.964.113-1.428.34a3.155 3.155 0 00-1.122.833V21z" fill="#2B2E34"/><rect x="121" y="15.5" width="21.92" height="21.92" rx="3" transform="rotate(-45 121 15.5)" fill="#242424"/><circle cx="136.535" cy="15.5" r="8.877" fill="#FCFCFC"/><rect x="130.987" y="9.952" width="11.175" height="11.175" rx="3" fill="#242424"/><circle cx="136.519" cy="15.485" r="3.868" fill="#FCFCFC"/><rect x="134.87" y="15.5" width="2.507" height="2.507" rx="1" transform="rotate(-45 134.87 15.5)" fill="#242424"/></svg>