<svg width="186" height="38" fill="none" xmlns="http://www.w3.org/2000/svg"><path d="M36.396 18.29h7.816v-2.27H31.839c0-.83.335-1.463 1.004-1.903.686-.438 1.593-.658 2.72-.658h9.09c.49 0 .955.065 1.396.195.441.13.825.309 1.152.537.343.211.612.471.808.78.196.31.294.65.294 1.025v7.146c0 .39-.098.74-.294 1.05a2.718 2.718 0 01-.808.804 4.4 4.4 0 01-1.152.512 5.65 5.65 0 01-1.42.171h-9.066a7.037 7.037 0 01-1.47-.146 4.197 4.197 0 01-1.176-.44 2.473 2.473 0 01-.809-.78c-.18-.325-.27-.707-.27-1.146h12.374v-2.293h-7.816V18.29zm26.079 7.39c-.506 0-.931-.04-1.274-.122a5.596 5.596 0 01-.882-.293 3.72 3.72 0 01-.662-.39 13.034 13.034 0 00-.588-.415l-5.194-4.414v3.293c0 .439-.106.813-.318 1.122a2.141 2.141 0 01-.809.707 4.16 4.16 0 01-1.2.39 7.695 7.695 0 01-1.397.122h-.367V13.46h4.091v5.39l5.341-5.39h4.533l-5.586 5.732 7.448 6.488h-3.136zm21.072-2.464c0 .44-.098.814-.294 1.122a2.582 2.582 0 01-.809.757 3.846 3.846 0 01-1.176.439 7.037 7.037 0 01-1.47.146h-9.065c-.506 0-.98-.057-1.421-.17a4.84 4.84 0 01-1.176-.513 2.973 2.973 0 01-.784-.78 2.048 2.048 0 01-.27-1.05v-7.22c0-.357.09-.69.27-1 .196-.324.457-.593.784-.804a3.847 3.847 0 011.176-.512 5.664 5.664 0 011.421-.171h9.065c1.111 0 2.01.22 2.695.658.703.423 1.054 1.05 1.054 1.879v7.22zm-4.092-7.195h-8.28v7.147h8.28V16.02zM97.4 25.68v-4.805h-8.28v4.805h-4.092v-9.732c0-.358.098-.683.294-.976a2.56 2.56 0 01.784-.78 4.323 4.323 0 011.176-.537c.441-.13.915-.195 1.421-.195h.417v4.878h8.306V13.46h4.067v12.22H97.4zm27.636-2.464c0 .52-.139.944-.417 1.269a2.603 2.603 0 01-1.004.756 4.67 4.67 0 01-1.323.366c-.474.049-.923.073-1.348.073h-8.575v-.244c0-.569.147-1.008.441-1.317.31-.325.662-.553 1.054-.683a4.15 4.15 0 011.249-.244c.441-.016.784-.024 1.029-.024h4.802v-2.293h-8.624c-.245 0-.58.016-1.004.049a5.619 5.619 0 01-1.275-.098 2.284 2.284 0 01-1.053-.56c-.294-.293-.441-.74-.441-1.342v-5.44h.343c.261 0 .604.017 1.029.05a5.14 5.14 0 011.25.243c.408.13.759.341 1.053.634.294.293.441.716.441 1.269v2.61h8.281v-4.83h4.092v9.756zm17.944-4.926c0 .861-.416 1.512-1.249 1.95-.833.424-1.952.635-3.357.635h-6.125c0-.26.041-.545.122-.854a2.77 2.77 0 01.417-.854c.196-.243.449-.447.759-.61.311-.178.678-.267 1.103-.267h4.214v-2.27h-8.257v6.805c0 1.139-.351 1.919-1.053 2.342-.36.211-.768.35-1.225.415a9.923 9.923 0 01-1.397.097h-.416V13.46h12.716c1.11 0 2.009.22 2.695.658.702.44 1.053 1.074 1.053 1.903v2.268zm1.481-2.269c0-.83.343-1.463 1.029-1.903.702-.438 1.608-.658 2.719-.658h16.097c1.111 0 2.009.22 2.695.658.702.44 1.054 1.074 1.054 1.903v4.147c0 .861-.417 1.512-1.25 1.95-.833.424-1.952.635-3.356.635h-5.146v.073c0 1.139-.351 1.919-1.053 2.342a3.31 3.31 0 01-1.225.415 9.923 9.923 0 01-1.397.097h-.416v-2.927h-5.145c-1.405 0-2.524-.211-3.357-.634-.833-.44-1.249-1.09-1.249-1.951V16.02zm13.842 4.147h5.636V16.02h-5.636v4.147zm-9.726 0h5.635V16.02h-5.635v4.147zM186 23.216c0 .44-.098.814-.294 1.122a2.584 2.584 0 01-.809.757 3.832 3.832 0 01-1.176.439 7.032 7.032 0 01-1.47.146h-9.065c-.506 0-.98-.057-1.421-.17a4.84 4.84 0 01-1.176-.513 2.969 2.969 0 01-.784-.78 2.045 2.045 0 01-.27-1.05v-7.22c0-.357.09-.69.27-1 .196-.324.457-.593.784-.804a3.847 3.847 0 011.176-.512 5.664 5.664 0 011.421-.171h9.065c1.111 0 2.009.22 2.695.658.703.423 1.054 1.05 1.054 1.879v7.22zm-4.092-7.195h-8.281v7.147h8.281V16.02z" fill="#2B2E34"/><path d="M17.036 21.771c-1.757 3.037-4.897 9.407-4.792 12.8.205.273.47.468.77.58a5.909 5.909 0 001.472-1.82l2.119-.843c-.818 2.318-2.455 3.09-3.591 2.664a4.06 4.06 0 01-.61.428 3.58 3.58 0 01-.16-1.009c-.5-.661-.652-1.776-.11-3.252.86-2.348 2.388-5.464 4.902-9.548z" fill="url(#paint0_linear_1_1676)"/><path d="M12.404 35.58c.773-.425 1.69-1.457 2.076-2.237.913-.355 1.14-.411 1.316-.447-.498 1.21-1.244 2.263-1.896 2.933-.49.503-1.276.419-1.496-.249z" fill="url(#paint1_linear_1_1676)"/><path d="M22.971 18.264c-.738-2.818-2.803-3.77-2.91-2.713-.85 2.396-2.2 4.732-2.767 5.601-4.701 8.935-2.602 11.66-1.632 11.801 8.487-3.325 8.433-11.19 7.309-14.69z" fill="url(#paint2_linear_1_1676)"/><path d="M10.051 13.827c.405-2.554.164-7.976-3.845-11.178-.249.531-.234 2.117 1.101 5.062L6.028 9.8C4.833 7.676 2.725 2.225 4.572.986c1.689-.842 6.953 4.026 5.48 12.841z" fill="url(#paint3_radial_1_1676)"/><path d="M4.882 2.583c.415-.279 1.248-.067 1.386.107-.387 1.39.54 3.89 1.07 5.037l-.995 1.64C4.405 4.86 4.432 3 4.882 2.582z" fill="url(#paint4_linear_1_1676)"/><path d="M15.018 17.047C15.585 8.97 11.59 3.553 9.522 1.853c9.672 5.402 12.941 13.084 13.366 16.249-1.304-4.446-5.79-2.556-7.87-1.055z" fill="url(#paint5_linear_1_1676)"/><path opacity=".25" d="M21.141 15.642c-1.69-4.823-6.877-9.443-9.26-11.081 3.134 4.635 3.368 9.908 3.169 12.405 2.535-1.707 4.436-2.09 6.091-1.324z" fill="url(#paint6_linear_1_1676)"/><path d="M20.242 15.83c2.32 3.08 4.804 10.536-3.818 15.725.94-4.853 3.02-14.794 3.819-15.724z" fill="url(#paint7_linear_1_1676)"/><path d="M15.667 32.952c-1.73-1.657.283-8.372 1.496-11.55-4.15 7.57-5.04 11.137-4.89 12.346 2.09-.214 1.989-.367 3.394-.796z" fill="#27569F"/><path d="M8.91 33.303c-.4-5.618 2.28-11.892 3.67-14.327-9.407 4.46-12.02 1.858-12.15 0-2.224 9.485 4.727 13.503 8.48 14.327z" fill="url(#paint8_linear_1_1676)"/><path d="M8.905 32.342c-.106-5.262 2.32-11.098 3.675-13.366-7.456 3.297-10.212 2.7-11.413 1.403-1.018 7.69 4.758 11.168 7.738 11.963z" fill="url(#paint9_linear_1_1676)"/><path d="M.437 19.038C1.55 15.07 4.36 10.96 6.605 9.365c3.023-.963 3.541 2.303 3.53 4.075-.457 4.478-2.568 7.098-3.566 7.795-4.028 1.24-6.025-.284-6.132-2.197z" fill="url(#paint10_linear_1_1676)"/><path d="M5.241 10.583l3.511-4.799c1.46 2.226 1.595 5.931 1.38 7.539-.497-5.207-3.433-4.154-4.89-2.74z" fill="#148CCC"/><defs><linearGradient id="paint0_linear_1_1676" x1="14.109" y1="21.771" x2="12.544" y2="37.8" gradientUnits="userSpaceOnUse"><stop stop-color="#1EA99E"/><stop offset=".359" stop-color="#D0FEFA"/><stop offset="1" stop-color="#1EA99E"/></linearGradient><linearGradient id="paint1_linear_1_1676" x1="15.25" y1="33.13" x2="12.193" y2="37.11" gradientUnits="userSpaceOnUse"><stop stop-color="#188C83"/><stop offset="1" stop-color="#fff" stop-opacity="0"/></linearGradient><linearGradient id="paint2_linear_1_1676" x1="20.771" y1="15.446" x2="15.729" y2="32.937" gradientUnits="userSpaceOnUse"><stop stop-color="#2D63C8"/><stop offset="1" stop-color="#08A7FA"/></linearGradient><linearGradient id="paint4_linear_1_1676" x1="5.089" y1="2.478" x2="6.904" y2="8.417" gradientUnits="userSpaceOnUse"><stop stop-color="#ADFFF8"/><stop offset="1" stop-color="#1EA99E"/></linearGradient><linearGradient id="paint5_linear_1_1676" x1="16.223" y1=".024" x2="21.711" y2="15.632" gradientUnits="userSpaceOnUse"><stop stop-color="#00AFFF"/><stop offset="1" stop-color="#4268D5"/></linearGradient><linearGradient id="paint6_linear_1_1676" x1="17.832" y1="10.241" x2="15.041" y2="12.814" gradientUnits="userSpaceOnUse"><stop stop-color="#fff" stop-opacity=".73"/><stop offset="1" stop-color="#fff" stop-opacity="0"/></linearGradient><linearGradient id="paint7_linear_1_1676" x1="22.419" y1="24.398" x2="19.429" y2="23.425" gradientUnits="userSpaceOnUse"><stop stop-color="#fff" stop-opacity=".18"/><stop offset="1" stop-color="#fff" stop-opacity="0"/></linearGradient><linearGradient id="paint8_linear_1_1676" x1="12.58" y1="19.011" x2="2.175" y2="30.051" gradientUnits="userSpaceOnUse"><stop stop-color="#0D9FF4"/><stop offset="1" stop-color="#2B67CB"/></linearGradient><linearGradient id="paint9_linear_1_1676" x1="2.121" y1="27.079" x2="5.737" y2="23.826" gradientUnits="userSpaceOnUse"><stop stop-color="#fff" stop-opacity=".25"/><stop offset="1" stop-color="#fff" stop-opacity="0"/></linearGradient><linearGradient id="paint10_linear_1_1676" x1="8.28" y1="9.613" x2="2.74" y2="21.651" gradientUnits="userSpaceOnUse"><stop stop-color="#06AAFC"/><stop offset="1" stop-color="#1B4CAA"/></linearGradient><radialGradient id="paint3_radial_1_1676" cx="0" cy="0" r="1" gradientUnits="userSpaceOnUse" gradientTransform="matrix(-2.68182 -5.2568 2.57255 -1.31242 7.61 6.136)"><stop stop-color="#2AAFA4"/><stop offset=".558" stop-color="#D0FDF9"/><stop offset="1" stop-color="#2AAFA4"/></radialGradient></defs></svg>