<svg width="20" height="20" fill="none" xmlns="http://www.w3.org/2000/svg"><path d="M19.375 2.5h-7.813A3.13 3.13 0 008.5 5H7.232a4.382 4.382 0 014.33-3.75h7.813a.625.625 0 100-1.25h-7.813a5.633 5.633 0 00-5.59 5h-.318A4.722 4.722 0 00.938 9.717v.908H.625A.625.625 0 000 11.25v2.5c0 .345.28.625.625.625H15c.345 0 .625-.28.625-.625v-2.5a.625.625 0 00-.625-.625h-.313v-.908A4.72 4.72 0 009.971 5h-.176a1.878 1.878 0 011.768-1.25h7.812a.625.625 0 100-1.25zm-5 10.625H1.25v-1.25h13.125v1.25zm-.938-3.408v.908H2.188v-.908A3.47 3.47 0 015.655 6.25h4.317a3.47 3.47 0 013.466 3.467zM7.813 15a.625.625 0 00-.625.625v.898a.625.625 0 101.25 0v-.898A.625.625 0 007.811 15zm3.75 0a.625.625 0 00-.626.625v.898a.625.625 0 101.25 0v-.898a.625.625 0 00-.624-.625zm-1.875 2.852a.625.625 0 00-.626.625v.898a.625.625 0 101.25 0v-.898a.625.625 0 00-.624-.625zm4.062 0a.625.625 0 00-.625.625v.898a.625.625 0 101.25 0v-.898a.625.625 0 00-.625-.625zM4.063 15a.625.625 0 00-.625.625v.898a.625.625 0 101.25 0v-.898A.625.625 0 004.063 15zm1.875 2.852a.625.625 0 00-.625.625v.898a.625.625 0 101.25 0v-.898a.625.625 0 00-.625-.625zm-3.75 0a.625.625 0 00-.626.625v.898a.625.625 0 101.25 0v-.898a.625.625 0 00-.624-.625z" fill="#2B2E34"/></svg>