<svg width="20" height="24" fill="none" xmlns="http://www.w3.org/2000/svg"><path d="M14.954 7.973v-2.04a5.03 5.03 0 00-.352-1.85 4.859 4.859 0 00-1.001-1.57 4.612 4.612 0 00-1.5-1.05 4.442 4.442 0 00-3.536 0c-.561.244-1.07.6-1.5 1.05-.429.449-.77.982-1.001 1.57a5.036 5.036 0 00-.352 1.85v4.84c0 .183.07.358.193.488.124.13.292.202.467.202a.646.646 0 00.467-.202.708.708 0 00.193-.489V9.355h5.281V7.973h-5.28v-2.04c0-.916.347-1.795.966-2.443a3.227 3.227 0 012.334-1.012c.876 0 1.715.364 2.334 1.012a3.54 3.54 0 01.967 2.444v4.804c0 .183.07.359.193.488.124.13.292.203.467.203a.645.645 0 00.467-.203.708.708 0 00.193-.488V9.355h3.301v12.442H2.411V9.355h1.98V7.973h-3.3v13.886c0 .35.133.686.37.933.236.248.556.387.89.387h15.963c.335 0 .655-.14.892-.387.236-.247.37-.583.37-.933V7.973h-4.622z" fill="#2B2E34"/><path d="M19.667 7.817h-4.561V5.934c0-.656-.124-1.305-.363-1.91a5.015 5.015 0 00-1.034-1.62A4.764 4.764 0 0012.16 1.32a4.59 4.59 0 00-3.655 0 4.744 4.744 0 00-1.548 1.083 5.015 5.015 0 00-1.034 1.62 5.196 5.196 0 00-.363 1.91v4.838c0 .224.085.439.237.598a.795.795 0 00.574.249c.216 0 .423-.09.575-.25a.866.866 0 00.237-.597v-1.26h5.281V7.817H7.185V5.934c0-.877.332-1.716.923-2.335a3.078 3.078 0 012.226-.966c.835 0 1.636.347 2.227.966.59.619.923 1.458.923 2.335v4.804c0 .223.085.438.237.597a.79.79 0 00.574.25c.216 0 .423-.09.575-.25a.866.866 0 00.237-.598V9.512h2.998v12.13H2.563V9.511h1.98V7.817H.94V21.86c0 .39.148.765.413 1.042.264.277.624.433.999.433h15.963c.375 0 .734-.156 1-.433a1.51 1.51 0 00.412-1.042V7.817h-.06zM2.41 9.295h-.06v12.562h15.964V9.295h-3.42v1.443a.647.647 0 01-.177.447.585.585 0 01-.424.184.586.586 0 01-.423-.184.648.648 0 01-.177-.447V5.934a3.6 3.6 0 00-.983-2.485 3.288 3.288 0 00-2.378-1.031c-.892 0-1.747.37-2.377 1.03a3.6 3.6 0 00-.983 2.486v2.099h5.281v1.262H6.974v1.477c0 .168-.064.33-.177.447a.585.585 0 01-.424.184.585.585 0 01-.423-.184.648.648 0 01-.177-.447V5.934c0-.628.118-1.25.348-1.83a4.8 4.8 0 01.99-1.55A4.553 4.553 0 018.59 1.519a4.382 4.382 0 013.489 0c.553.24 1.056.591 1.48 1.035.423.444.76.97.989 1.55.23.58.348 1.202.348 1.83v2.099h4.618v13.826c0 .335-.127.656-.352.892-.226.236-.53.368-.848.368H2.352c-.318 0-.623-.132-.848-.368a1.292 1.292 0 01-.353-.892V8.033h3.18v1.262h-1.92z" fill="#2B2E34" stroke="#2B2E34" stroke-width=".12"/></svg>