<svg width="22" height="23" fill="none" xmlns="http://www.w3.org/2000/svg"><path d="M18.76 15.616c-1.296-1.085-2.612-1.742-3.893-.659l-.764.655c-.56.475-1.6 2.696-5.621-1.83-4.02-4.522-1.628-5.226-1.068-5.697l.77-.656c1.273-1.086.792-2.453-.127-3.86l-.554-.852C6.58 1.313 5.575.391 4.298 1.475l-.69.59a6.326 6.326 0 00-2.525 4.196c-.46 2.981.993 6.395 4.321 10.141 3.325 3.748 6.58 5.63 9.664 5.598 2.562-.027 4.11-1.373 4.594-1.862l.693-.591c1.273-1.084.482-2.187-.815-3.274l-.78-.657z" stroke="#2B2E34" stroke-width="2"/></svg>