<svg width="23" height="18" fill="none" xmlns="http://www.w3.org/2000/svg"><path d="M21.445.633a.664.664 0 00-.657.672v2.627h-.734v-.6c0-1.488-1.184-2.699-2.638-2.699-.79 0-1.498.36-1.983.924a2.607 2.607 0 00-1.982-.924c-.79 0-1.498.36-1.982.924A2.608 2.608 0 009.487.633c-.79 0-1.498.36-1.982.924A2.607 2.607 0 005.522.633c-1.454 0-2.638 1.211-2.638 2.7v.599H1.557c-.362 0-.657.3-.657.671 0 .37.295.672.657.672h1.326V15.3c0 1.489 1.184 2.7 2.638 2.7.79 0 1.499-.359 1.983-.924A2.607 2.607 0 009.486 18c.79 0 1.498-.359 1.982-.924A2.607 2.607 0 0013.45 18c.79 0 1.498-.359 1.982-.924a2.607 2.607 0 001.983.924c1.455 0 2.639-1.211 2.639-2.7V5.275h1.39a.664.664 0 00.656-.671V1.305a.663.663 0 00-.655-.672zM18.74 5.275v10.026c0 .748-.594 1.356-1.325 1.356s-1.326-.608-1.326-1.356V3.333c0-.748.595-1.356 1.326-1.356.73 0 1.325.608 1.325 1.356v1.942zM14.777 15.3c0 .748-.595 1.357-1.326 1.357-.731 0-1.326-.608-1.326-1.357V3.333c0-.748.595-1.356 1.326-1.356.73 0 1.325.608 1.325 1.356V15.3zm-3.965 0c0 .748-.595 1.357-1.325 1.357-.731 0-1.326-.608-1.326-1.357V3.333c0-.748.595-1.356 1.326-1.356.73 0 1.325.608 1.325 1.356V15.3zm-3.965 0c0 .748-.595 1.357-1.325 1.357-.731 0-1.326-.608-1.326-1.357V3.333c0-.748.595-1.356 1.326-1.356.73 0 1.325.608 1.325 1.356V15.3z" fill="#2B2E34"/></svg>