<svg width="21" height="21" fill="none" xmlns="http://www.w3.org/2000/svg"><path d="M11.177 7.155v.078l.075.02a3.194 3.194 0 012.377 2.662l1.047 7.848a2.77 2.77 0 01-2.747 3.137H3.57a2.771 2.771 0 01-2.747-3.137l-.1-.014.1.014L1.87 9.915a3.194 3.194 0 012.377-2.663l.075-.019v-2.46a.9.9 0 01.9-.9H7.03V1.541H4.322V1a.9.9 0 01.9-.9h6.926c.768 0 1.49.299 2.033.842l2.07 2.07a.72.72 0 01-1.018 1.019l-2.07-2.07a1.426 1.426 0 00-1.014-.42H8.47v2.332h1.807a.9.9 0 01.9.9v2.382zm-1.44-1.74v-.1H5.762v1.84h3.974v-1.74zM2.251 17.952l.099.013-.1-.013c-.05.385.063.76.319 1.052.256.293.612.454 1 .454h8.359c.389 0 .745-.161 1-.454.257-.292.37-.667.319-1.052L12.2 10.106a1.746 1.746 0 00-1.725-1.51H5.023c-.869 0-1.61.649-1.725 1.51l-1.046 7.847zm14.667-7.331h0v.002a.921.921 0 001.84 0h.001v-.006c-.003-.04-.042-.403-.7-1.372a12.135 12.135 0 00-.139-.2l-.081-.115-.082.115-.138.2c-.667.981-.7 1.343-.7 1.376zM8.51 13.247v.1h1.641v1.44H8.512v1.641h-1.44V14.79H5.43v-1.441h1.64v-1.641h1.441v1.54zm9.232-6.502l.097-.117a55.663 55.663 0 01.51.627c.322.4.694.876.906 1.187l.083-.056-.083.056c.856 1.262.945 1.856.945 2.18a2.364 2.364 0 01-2.361 2.361 2.364 2.364 0 01-2.361-2.361c0-.324.088-.918.944-2.18l-.083-.056.083.056c.212-.311.584-.787.905-1.187.16-.2.308-.38.415-.51z" fill="#2B2E34" stroke="#fff" stroke-width=".2"/></svg>